<svg
  xmlns="http://www.w3.org/2000/svg"
  version="1.1"
  xmlns:xlink="http://www.w3.org/1999/xlink"
  xmlns:svgjs="http://svgjs.dev/svgjs"
  width="200"
  height="225"
  viewBox="0 0 200 225"
>
  <g transform="matrix(1,0,0,1,3.410605131648481e-13,0)">
    <svg
      viewBox="0 0 320 360"
      data-background-color="#4c1212"
      preserveAspectRatio="xMidYMid meet"
      height="225"
      width="200"
      xmlns="http://www.w3.org/2000/svg"
      xmlns:xlink="http://www.w3.org/1999/xlink"
    >
      <g id="tight-bounds" transform="matrix(1,0,0,1,0,0)">
        <svg viewBox="0 0 320 360" height="360" width="320">
          <rect
            width="320.0000000000001"
            height="360"
            fill="url(#fefc11dc-4907-4be7-a7e1-6f2301f63d1a)"
            mask="url(#439aa3b0-5791-466a-b182-ba73a0c9055a)"
            data-fill-palette-color="tertiary"
          ></rect>
          <g><svg></svg></g>
          <g>
            <svg viewBox="0 0 320 360" height="360" width="320">
              <g>
                <path
                  d="M20.961 227.22l3.726 4.658-1.863-6.056c-0.466-2.795-3.726 0.466-1.863 1.398M25.153 224.425c1.397 2.329 2.795 4.658 2.795 6.987 0 3.261 2.795 4.658 5.123 5.589-3.261-3.726-5.124-13.974-7.918-12.576M204.017 26.929c7.918 0 15.371-0.932 23.756 0.931 20.495 5.124 37.729 15.371 49.374 29.811l32.606 52.169c1.397 13.042 4.192 27.482 3.726 43.319 3.261 0 2.795-4.658 6.521-5.59-3.726 9.316-5.59 20.961-6.521 34.469-2.329-7.453 0-18.632 0.466-24.687-3.261 5.124-5.124 1.397-5.124-0.932 0.466-3.726-1.397-3.261-2.795-4.658-5.124-4.658-8.384-9.782-12.11-17.7 2.329-6.055 2.795-14.905-4.658-19.563-2.329-1.397-5.124-3.726-6.521-7.453-1.863-5.124-5.124-11.179-4.193-19.097 0.466-2.329-6.987 5.124-11.179 1.863-18.166-12.576-36.332-27.016-58.224-39.127-11.645 0-20.029-4.192-24.221-9.316-3.726-4.658-0.932-10.713 4.658-11.179 3.261 0 6.987-0.932 9.782 0.932 0.466-1.863 2.329-4.192 4.657-4.192M157.904 16.215l0.932 0.466c4.658 0.932 6.987 7.453 12.11 5.124 0 3.261 0.466 6.521-0.466 8.85-1.397 3.726-5.59 3.726-8.85 3.726-31.208-1.863-49.374 11.179-68.471 22.358-5.124 3.261-10.713 5.59-14.906 9.782-20.029 18.632-41.921 35.866-47.045 70.335l-4.192 38.195c-0.466 4.192-5.124 8.384-4.192 13.508l3.26 22.824c-3.261-3.261-5.124 0.932-4.192 2.795 0.466 1.397 2.329 6.055 5.124 1.863 3.726 6.987 7.453 20.495 12.576 26.55 15.837 18.632 36.332 35.4 53.101 52.169 4.192-0.932 7.453-0.932 8.384-3.727 1.397 2.795-1.397 5.59-3.726 6.056 7.453 4.658 15.837 8.85 27.016 9.781 14.44 0.932 27.948 3.261 40.524 6.522 6.521-1.863 13.042-2.795 20.029-3.261 2.329 0 3.726-3.726 6.521-4.658l0.466-4.658c2.795 4.192 2.329-1.397 0.466-4.192 3.261 2.795 4.192 5.124 5.589 6.987 0-1.397 3.726-6.521 3.727-0.466l0.931-6.055c1.397-0.932 1.863 5.124 3.261 0.931 1.397-4.192 4.192-0.932 6.987-2.329-0.932 1.863-0.466 5.59 2.794 3.261l3.727-3.261c2.329 5.59 6.055 3.261 7.918 2.329 20.495-13.042 40.99-28.413 60.553-43.784l-0.466 6.055 2.329-7.453c2.329 2.329 4.192 0.466 5.124-0.931 2.795-4.658 6.521-9.316 12.577-13.508-7.453 20.029-16.303 35.866-27.482 48.908l-4.658 5.59c0 3.261-0.932 7.453-4.658 7.918-1.863 0.466-5.59-0.932-8.384 1.863-1.397 1.863 3.261 5.59-0.466 2.795-3.261-2.329-6.521 0-10.248 0.932-2.795 0.932 1.863 3.726 2.795 5.589 0.932 1.863 1.863 3.726 1.398 6.056l-5.124-5.59c-6.055 3.261-9.782 9.316-14.906 13.974-2.329 1.863-1.397 5.124-1.397 7.918-3.261 0-6.987-0.932-8.85 0.932-1.397 1.863-0.932 4.658-0.932 7.453-4.658-0.466-5.124-7.453-9.315-6.056-4.192 0.932-8.85 1.397-12.577 3.727 2.795 5.59-4.658 2.329-3.726 3.26-6.987-4.192-13.042-7.453-20.495-4.658-15.837-5.124-35.4-2.795-49.84-0.931 0-2.329 0.466-4.658-0.466-5.124-0.932 2.329-3.726 1.397-3.26 1.397-8.85-6.055-17.7-9.782-27.016-14.905-8.384 0.932-16.303-3.261-18.632-5.59-6.521-6.055-13.974-2.795-20.029-4.192-13.042-3.261-17.7-16.769-19.098-26.084-0.932-4.658-4.658-6.521-6.055-6.056-6.055-19.563-15.371-37.263-22.824-55.429-1.863-4.658-1.397-9.316-1.397-14.44 2.329 0.932 4.658 0.466 4.192-2.794-2.329-15.371-7.918-27.016-13.974-38.195 3.261-15.837 3.726-34.469 11.179-48.443 6.521-12.576 18.632-19.098 27.016-29.811 2.795-3.726 2.795-8.85 5.59-12.11 9.316-9.316 18.632-19.098 28.879-27.482 4.658-3.726 10.247 0 17.234-1.397 2.329-8.384 11.645-15.837 20.495-13.508 3.726 0.932 11.179-8.85 13.508-9.782 3.726-1.397 1.863 3.726 1.863 6.987 8.85-6.987 20.961-10.713 32.14-14.906"
                  fill="url(#fefc11dc-4907-4be7-a7e1-6f2301f63d1a)"
                  fill-rule="nonzero"
                  stroke="none"
                  stroke-width="1"
                  stroke-linecap="butt"
                  stroke-linejoin="miter"
                  stroke-miterlimit="10"
                  stroke-dasharray=""
                  stroke-dashoffset="0"
                  font-family="none"
                  font-weight="none"
                  font-size="none"
                  text-anchor="none"
                  style="mix-blend-mode: normal"
                  data-fill-palette-color="tertiary"
                ></path>
              </g>
              <g transform="matrix(1,0,0,1,64,121.55251141552512)">
                <svg
                  viewBox="0 0 192 116.89497716894975"
                  height="116.89497716894975"
                  width="192"
                >
                  <g>
                    <svg
                      viewBox="0 0 192 116.89497716894975"
                      height="116.89497716894975"
                      width="192"
                    >
                      <g>
                        <svg
                          viewBox="0 0 192 116.89497716894975"
                          height="116.89497716894975"
                          width="192"
                        >
                          <g id="textblocktransform">
                            <svg
                              viewBox="0 0 192 116.89497716894975"
                              height="116.89497716894975"
                              width="192"
                              id="textblock"
                            >
                              <g>
                                <svg
                                  viewBox="0 0 192 116.89497716894975"
                                  height="116.89497716894975"
                                  width="192"
                                >
                                  <g transform="matrix(1,0,0,1,0,0)">
                                    <svg
                                      width="192"
                                      viewBox="2.64 -40 65.69 40"
                                      height="116.89497716894975"
                                      data-palette-color="url(#c21cd238-6876-4862-84fd-95eb39989a9b)"
                                    ></svg>
                                  </g>
                                </svg>
                              </g>
                            </svg>
                          </g>
                        </svg>
                      </g>
                      <g></g>
                    </svg>
                  </g>
                </svg>
              </g>
            </svg>
          </g>
          <defs></defs>
          <mask id="886897ab-f178-47fd-bd8c-2501570a7f4f">
            <g id="SvgjsG1100">
              <svg viewBox="0 0 320 360" height="360" width="320">
                <g><svg></svg></g>
                <g>
                  <svg viewBox="0 0 320 360" height="360" width="320">
                    <g>
                      <path
                        d="M20.961 227.22l3.726 4.658-1.863-6.056c-0.466-2.795-3.726 0.466-1.863 1.398M25.153 224.425c1.397 2.329 2.795 4.658 2.795 6.987 0 3.261 2.795 4.658 5.123 5.589-3.261-3.726-5.124-13.974-7.918-12.576M204.017 26.929c7.918 0 15.371-0.932 23.756 0.931 20.495 5.124 37.729 15.371 49.374 29.811l32.606 52.169c1.397 13.042 4.192 27.482 3.726 43.319 3.261 0 2.795-4.658 6.521-5.59-3.726 9.316-5.59 20.961-6.521 34.469-2.329-7.453 0-18.632 0.466-24.687-3.261 5.124-5.124 1.397-5.124-0.932 0.466-3.726-1.397-3.261-2.795-4.658-5.124-4.658-8.384-9.782-12.11-17.7 2.329-6.055 2.795-14.905-4.658-19.563-2.329-1.397-5.124-3.726-6.521-7.453-1.863-5.124-5.124-11.179-4.193-19.097 0.466-2.329-6.987 5.124-11.179 1.863-18.166-12.576-36.332-27.016-58.224-39.127-11.645 0-20.029-4.192-24.221-9.316-3.726-4.658-0.932-10.713 4.658-11.179 3.261 0 6.987-0.932 9.782 0.932 0.466-1.863 2.329-4.192 4.657-4.192M157.904 16.215l0.932 0.466c4.658 0.932 6.987 7.453 12.11 5.124 0 3.261 0.466 6.521-0.466 8.85-1.397 3.726-5.59 3.726-8.85 3.726-31.208-1.863-49.374 11.179-68.471 22.358-5.124 3.261-10.713 5.59-14.906 9.782-20.029 18.632-41.921 35.866-47.045 70.335l-4.192 38.195c-0.466 4.192-5.124 8.384-4.192 13.508l3.26 22.824c-3.261-3.261-5.124 0.932-4.192 2.795 0.466 1.397 2.329 6.055 5.124 1.863 3.726 6.987 7.453 20.495 12.576 26.55 15.837 18.632 36.332 35.4 53.101 52.169 4.192-0.932 7.453-0.932 8.384-3.727 1.397 2.795-1.397 5.59-3.726 6.056 7.453 4.658 15.837 8.85 27.016 9.781 14.44 0.932 27.948 3.261 40.524 6.522 6.521-1.863 13.042-2.795 20.029-3.261 2.329 0 3.726-3.726 6.521-4.658l0.466-4.658c2.795 4.192 2.329-1.397 0.466-4.192 3.261 2.795 4.192 5.124 5.589 6.987 0-1.397 3.726-6.521 3.727-0.466l0.931-6.055c1.397-0.932 1.863 5.124 3.261 0.931 1.397-4.192 4.192-0.932 6.987-2.329-0.932 1.863-0.466 5.59 2.794 3.261l3.727-3.261c2.329 5.59 6.055 3.261 7.918 2.329 20.495-13.042 40.99-28.413 60.553-43.784l-0.466 6.055 2.329-7.453c2.329 2.329 4.192 0.466 5.124-0.931 2.795-4.658 6.521-9.316 12.577-13.508-7.453 20.029-16.303 35.866-27.482 48.908l-4.658 5.59c0 3.261-0.932 7.453-4.658 7.918-1.863 0.466-5.59-0.932-8.384 1.863-1.397 1.863 3.261 5.59-0.466 2.795-3.261-2.329-6.521 0-10.248 0.932-2.795 0.932 1.863 3.726 2.795 5.589 0.932 1.863 1.863 3.726 1.398 6.056l-5.124-5.59c-6.055 3.261-9.782 9.316-14.906 13.974-2.329 1.863-1.397 5.124-1.397 7.918-3.261 0-6.987-0.932-8.85 0.932-1.397 1.863-0.932 4.658-0.932 7.453-4.658-0.466-5.124-7.453-9.315-6.056-4.192 0.932-8.85 1.397-12.577 3.727 2.795 5.59-4.658 2.329-3.726 3.26-6.987-4.192-13.042-7.453-20.495-4.658-15.837-5.124-35.4-2.795-49.84-0.931 0-2.329 0.466-4.658-0.466-5.124-0.932 2.329-3.726 1.397-3.26 1.397-8.85-6.055-17.7-9.782-27.016-14.905-8.384 0.932-16.303-3.261-18.632-5.59-6.521-6.055-13.974-2.795-20.029-4.192-13.042-3.261-17.7-16.769-19.098-26.084-0.932-4.658-4.658-6.521-6.055-6.056-6.055-19.563-15.371-37.263-22.824-55.429-1.863-4.658-1.397-9.316-1.397-14.44 2.329 0.932 4.658 0.466 4.192-2.794-2.329-15.371-7.918-27.016-13.974-38.195 3.261-15.837 3.726-34.469 11.179-48.443 6.521-12.576 18.632-19.098 27.016-29.811 2.795-3.726 2.795-8.85 5.59-12.11 9.316-9.316 18.632-19.098 28.879-27.482 4.658-3.726 10.247 0 17.234-1.397 2.329-8.384 11.645-15.837 20.495-13.508 3.726 0.932 11.179-8.85 13.508-9.782 3.726-1.397 1.863 3.726 1.863 6.987 8.85-6.987 20.961-10.713 32.14-14.906"
                        fill="black"
                        fill-rule="nonzero"
                        stroke="none"
                        stroke-width="1"
                        stroke-linecap="butt"
                        stroke-linejoin="miter"
                        stroke-miterlimit="10"
                        stroke-dasharray=""
                        stroke-dashoffset="0"
                        font-family="none"
                        font-weight="none"
                        font-size="none"
                        text-anchor="none"
                        style="mix-blend-mode: normal"
                      ></path>
                    </g>
                    <g transform="matrix(1,0,0,1,64,121.55251141552512)">
                      <svg
                        viewBox="0 0 192 116.89497716894975"
                        height="116.89497716894975"
                        width="192"
                      >
                        <g>
                          <svg
                            viewBox="0 0 192 116.89497716894975"
                            height="116.89497716894975"
                            width="192"
                          >
                            <g>
                              <svg
                                viewBox="0 0 192 116.89497716894975"
                                height="116.89497716894975"
                                width="192"
                              >
                                <g id="SvgjsG1099">
                                  <svg
                                    viewBox="0 0 192 116.89497716894975"
                                    height="116.89497716894975"
                                    width="192"
                                    id="SvgjsSvg1098"
                                  >
                                    <g>
                                      <svg
                                        viewBox="0 0 192 116.89497716894975"
                                        height="116.89497716894975"
                                        width="192"
                                      >
                                        <g transform="matrix(1,0,0,1,0,0)">
                                          <svg
                                            width="192"
                                            viewBox="2.64 -40 65.69 40"
                                            height="116.89497716894975"
                                            data-palette-color="url(#c21cd238-6876-4862-84fd-95eb39989a9b)"
                                          >
                                            <path
                                              d="M3.31 0L2.64 0 2.64-40 8.69-40 10.88-18.82 12.46-2.79 13.06-2.79 14.65-18.81 16.82-40 22.91-40 22.91 0 22.25 0 22.25-39.44 17.39-39.44 15.23-18.36 13.6-2.23 11.95-2.23 10.34-18.39 8.13-39.44 3.31-39.44 3.31 0ZM6.01 0L5.35 0 5.24-16.59 4.84-37.77 6.51-37.77 8.71-16.69 10.34-0.56 15.19-0.56 16.82-16.73 19.01-37.77 20.73-37.77 20.31-16.59 20.2 0 19.54 0 19.65-16.14 20.13-37.21 19.54-37.21 17.41-16.2 15.8 0 9.76 0 8.15-16.19 6.03-37.21 5.43-37.21 5.9-16.14 6.01 0ZM4.64 0L3.98 0 3.91-17.61 3.74-38.89 7.58-38.89 9.81-17.96 11.41-1.68 14.11-1.68 15.74-17.98 17.96-38.89 21.81-38.89 21.64-17.6 21.59 0 20.93 0 20.98-17.01 21.19-38.33 18.54-38.33 16.31-17.31 14.66-1.11 10.85-1.11 9.25-17.31 7.03-38.33 4.36-38.33 4.58-17.01 4.64 0ZM31.86 0L27.87 0 27.87-0.59 31.86-0.59 31.86 0ZM31.86-2.36L27.87-2.36 27.87-2.96 31.86-2.96 31.86-2.36ZM31.86-1.19L27.87-1.19 27.87-1.78 31.86-1.78 31.86-1.19ZM38.92 0L38.25 0 38.25-30 38.91-30 38.91-28.4 38.76-24.98 38.93-24.98Q39.57-26.85 40.95-27.86 42.32-28.88 44.4-28.88L44.4-28.88Q44.91-28.88 45.43-28.86 45.96-28.85 46.28-28.84L46.28-28.84 46.28-28.24Q45.93-28.26 45.38-28.27 44.82-28.28 44.28-28.28L44.28-28.28Q42.46-28.28 41.26-27.51 40.07-26.75 39.5-25.59 38.92-24.44 38.92-23.24L38.92-23.24 38.92 0ZM37.58 0L36.92 0 36.92-30 37.58-30 37.58 0ZM40.28 0L39.58 0 39.58-23.3Q39.58-25.09 40.71-26.36 41.83-27.64 44.03-27.64L44.03-27.64Q44.61-27.64 45.18-27.64 45.76-27.64 46.28-27.64L46.28-27.64 46.28-27.04Q45.76-27.04 45.18-27.04 44.6-27.04 44.03-27.04L44.03-27.04Q42.08-27.04 41.18-25.98 40.28-24.91 40.28-23.34L40.28-23.34 40.28 0ZM39.38-26.53L39.18-26.53 39.56-29.41 39.56-30 40.23-30 40.23-29.78 39.76-27.71 39.88-27.71Q40.56-28.86 41.88-29.46 43.21-30.06 44.65-30.06L44.65-30.06Q45-30.06 45.4-30.06 45.8-30.05 46.28-30.01L46.28-30.01 46.28-29.43Q45.86-29.45 45.46-29.46 45.07-29.48 44.68-29.48L44.68-29.48Q42.88-29.48 41.52-28.78 40.16-28.09 39.38-26.53L39.38-26.53ZM52.07 0L48.08 0 48.08-0.59 52.07-0.59 52.07 0ZM52.07-2.36L48.08-2.36 48.08-2.96 52.07-2.96 52.07-2.36ZM52.07-1.19L48.08-1.19 48.08-1.78 52.07-1.78 52.07-1.19ZM68.33 0L57.03 0 57.03-40 57.7-40 57.7-0.59 68.33-0.59 68.33 0ZM68.33-1.19L58.37-1.19 58.37-40 59.03-40 59.03-1.78 68.33-1.78 68.33-1.19ZM68.33-2.36L59.69-2.36 59.69-40 60.35-40 60.35-2.96 68.33-2.96 68.33-2.36Z"
                                              opacity="1"
                                              transform="matrix(1,0,0,1,0,0)"
                                              fill="white"
                                              class="wordmark-text-0"
                                              id="SvgjsPath1097"
                                            ></path>
                                          </svg>
                                        </g>
                                      </svg>
                                    </g>
                                  </svg>
                                </g>
                              </svg>
                            </g>
                            <g></g>
                          </svg>
                        </g>
                      </svg>
                    </g>
                  </svg>
                </g>
                <defs><mask></mask></defs>
              </svg>
              <rect
                width="320"
                height="360"
                fill="black"
                stroke="none"
                visibility="hidden"
              ></rect>
            </g>
          </mask>
          <linearGradient
            x1="0"
            x2="1"
            y1="0.5"
            y2="0.5"
            id="c21cd238-6876-4862-84fd-95eb39989a9b"
          >
            <stop stop-color="#ffa62e" offset="0"></stop>
            <stop stop-color="#f71b3d" offset="1"></stop>
          </linearGradient>
          <rect
            width="320.00000000000006"
            height="360"
            fill="url(#c21cd238-6876-4862-84fd-95eb39989a9b)"
            mask="url(#886897ab-f178-47fd-bd8c-2501570a7f4f)"
            data-fill-palette-color="primary"
          ></rect>
          <mask id="439aa3b0-5791-466a-b182-ba73a0c9055a">
            <g id="SvgjsG1107">
              <svg viewBox="0 0 320 360" height="360" width="320">
                <g><svg></svg></g>
                <g>
                  <svg viewBox="0 0 320 360" height="360" width="320">
                    <g>
                      <path
                        d="M20.961 227.22l3.726 4.658-1.863-6.056c-0.466-2.795-3.726 0.466-1.863 1.398M25.153 224.425c1.397 2.329 2.795 4.658 2.795 6.987 0 3.261 2.795 4.658 5.123 5.589-3.261-3.726-5.124-13.974-7.918-12.576M204.017 26.929c7.918 0 15.371-0.932 23.756 0.931 20.495 5.124 37.729 15.371 49.374 29.811l32.606 52.169c1.397 13.042 4.192 27.482 3.726 43.319 3.261 0 2.795-4.658 6.521-5.59-3.726 9.316-5.59 20.961-6.521 34.469-2.329-7.453 0-18.632 0.466-24.687-3.261 5.124-5.124 1.397-5.124-0.932 0.466-3.726-1.397-3.261-2.795-4.658-5.124-4.658-8.384-9.782-12.11-17.7 2.329-6.055 2.795-14.905-4.658-19.563-2.329-1.397-5.124-3.726-6.521-7.453-1.863-5.124-5.124-11.179-4.193-19.097 0.466-2.329-6.987 5.124-11.179 1.863-18.166-12.576-36.332-27.016-58.224-39.127-11.645 0-20.029-4.192-24.221-9.316-3.726-4.658-0.932-10.713 4.658-11.179 3.261 0 6.987-0.932 9.782 0.932 0.466-1.863 2.329-4.192 4.657-4.192M157.904 16.215l0.932 0.466c4.658 0.932 6.987 7.453 12.11 5.124 0 3.261 0.466 6.521-0.466 8.85-1.397 3.726-5.59 3.726-8.85 3.726-31.208-1.863-49.374 11.179-68.471 22.358-5.124 3.261-10.713 5.59-14.906 9.782-20.029 18.632-41.921 35.866-47.045 70.335l-4.192 38.195c-0.466 4.192-5.124 8.384-4.192 13.508l3.26 22.824c-3.261-3.261-5.124 0.932-4.192 2.795 0.466 1.397 2.329 6.055 5.124 1.863 3.726 6.987 7.453 20.495 12.576 26.55 15.837 18.632 36.332 35.4 53.101 52.169 4.192-0.932 7.453-0.932 8.384-3.727 1.397 2.795-1.397 5.59-3.726 6.056 7.453 4.658 15.837 8.85 27.016 9.781 14.44 0.932 27.948 3.261 40.524 6.522 6.521-1.863 13.042-2.795 20.029-3.261 2.329 0 3.726-3.726 6.521-4.658l0.466-4.658c2.795 4.192 2.329-1.397 0.466-4.192 3.261 2.795 4.192 5.124 5.589 6.987 0-1.397 3.726-6.521 3.727-0.466l0.931-6.055c1.397-0.932 1.863 5.124 3.261 0.931 1.397-4.192 4.192-0.932 6.987-2.329-0.932 1.863-0.466 5.59 2.794 3.261l3.727-3.261c2.329 5.59 6.055 3.261 7.918 2.329 20.495-13.042 40.99-28.413 60.553-43.784l-0.466 6.055 2.329-7.453c2.329 2.329 4.192 0.466 5.124-0.931 2.795-4.658 6.521-9.316 12.577-13.508-7.453 20.029-16.303 35.866-27.482 48.908l-4.658 5.59c0 3.261-0.932 7.453-4.658 7.918-1.863 0.466-5.59-0.932-8.384 1.863-1.397 1.863 3.261 5.59-0.466 2.795-3.261-2.329-6.521 0-10.248 0.932-2.795 0.932 1.863 3.726 2.795 5.589 0.932 1.863 1.863 3.726 1.398 6.056l-5.124-5.59c-6.055 3.261-9.782 9.316-14.906 13.974-2.329 1.863-1.397 5.124-1.397 7.918-3.261 0-6.987-0.932-8.85 0.932-1.397 1.863-0.932 4.658-0.932 7.453-4.658-0.466-5.124-7.453-9.315-6.056-4.192 0.932-8.85 1.397-12.577 3.727 2.795 5.59-4.658 2.329-3.726 3.26-6.987-4.192-13.042-7.453-20.495-4.658-15.837-5.124-35.4-2.795-49.84-0.931 0-2.329 0.466-4.658-0.466-5.124-0.932 2.329-3.726 1.397-3.26 1.397-8.85-6.055-17.7-9.782-27.016-14.905-8.384 0.932-16.303-3.261-18.632-5.59-6.521-6.055-13.974-2.795-20.029-4.192-13.042-3.261-17.7-16.769-19.098-26.084-0.932-4.658-4.658-6.521-6.055-6.056-6.055-19.563-15.371-37.263-22.824-55.429-1.863-4.658-1.397-9.316-1.397-14.44 2.329 0.932 4.658 0.466 4.192-2.794-2.329-15.371-7.918-27.016-13.974-38.195 3.261-15.837 3.726-34.469 11.179-48.443 6.521-12.576 18.632-19.098 27.016-29.811 2.795-3.726 2.795-8.85 5.59-12.11 9.316-9.316 18.632-19.098 28.879-27.482 4.658-3.726 10.247 0 17.234-1.397 2.329-8.384 11.645-15.837 20.495-13.508 3.726 0.932 11.179-8.85 13.508-9.782 3.726-1.397 1.863 3.726 1.863 6.987 8.85-6.987 20.961-10.713 32.14-14.906"
                        fill="white"
                        fill-rule="nonzero"
                        stroke="none"
                        stroke-width="1"
                        stroke-linecap="butt"
                        stroke-linejoin="miter"
                        stroke-miterlimit="10"
                        stroke-dasharray=""
                        stroke-dashoffset="0"
                        font-family="none"
                        font-weight="none"
                        font-size="none"
                        text-anchor="none"
                        style="mix-blend-mode: normal"
                      ></path>
                    </g>
                    <g transform="matrix(1,0,0,1,64,121.55251141552512)">
                      <svg
                        viewBox="0 0 192 116.89497716894975"
                        height="116.89497716894975"
                        width="192"
                      >
                        <g>
                          <svg
                            viewBox="0 0 192 116.89497716894975"
                            height="116.89497716894975"
                            width="192"
                          >
                            <g>
                              <svg
                                viewBox="0 0 192 116.89497716894975"
                                height="116.89497716894975"
                                width="192"
                              >
                                <g id="SvgjsG1106">
                                  <svg
                                    viewBox="0 0 192 116.89497716894975"
                                    height="116.89497716894975"
                                    width="192"
                                    id="SvgjsSvg1105"
                                  >
                                    <g>
                                      <svg
                                        viewBox="0 0 192 116.89497716894975"
                                        height="116.89497716894975"
                                        width="192"
                                      >
                                        <g transform="matrix(1,0,0,1,0,0)">
                                          <svg
                                            width="192"
                                            viewBox="2.64 -40 65.69 40"
                                            height="116.89497716894975"
                                            data-palette-color="url(#c21cd238-6876-4862-84fd-95eb39989a9b)"
                                          ></svg>
                                        </g>
                                      </svg>
                                    </g>
                                  </svg>
                                </g>
                              </svg>
                            </g>
                            <g></g>
                          </svg>
                        </g>
                      </svg>
                    </g>
                  </svg>
                </g>
                <defs><mask></mask></defs>
                <mask>
                  <g id="SvgjsG1104">
                    <svg viewBox="0 0 320 360" height="360" width="320">
                      <g><svg></svg></g>
                      <g>
                        <svg viewBox="0 0 320 360" height="360" width="320">
                          <g>
                            <path
                              d="M20.961 227.22l3.726 4.658-1.863-6.056c-0.466-2.795-3.726 0.466-1.863 1.398M25.153 224.425c1.397 2.329 2.795 4.658 2.795 6.987 0 3.261 2.795 4.658 5.123 5.589-3.261-3.726-5.124-13.974-7.918-12.576M204.017 26.929c7.918 0 15.371-0.932 23.756 0.931 20.495 5.124 37.729 15.371 49.374 29.811l32.606 52.169c1.397 13.042 4.192 27.482 3.726 43.319 3.261 0 2.795-4.658 6.521-5.59-3.726 9.316-5.59 20.961-6.521 34.469-2.329-7.453 0-18.632 0.466-24.687-3.261 5.124-5.124 1.397-5.124-0.932 0.466-3.726-1.397-3.261-2.795-4.658-5.124-4.658-8.384-9.782-12.11-17.7 2.329-6.055 2.795-14.905-4.658-19.563-2.329-1.397-5.124-3.726-6.521-7.453-1.863-5.124-5.124-11.179-4.193-19.097 0.466-2.329-6.987 5.124-11.179 1.863-18.166-12.576-36.332-27.016-58.224-39.127-11.645 0-20.029-4.192-24.221-9.316-3.726-4.658-0.932-10.713 4.658-11.179 3.261 0 6.987-0.932 9.782 0.932 0.466-1.863 2.329-4.192 4.657-4.192M157.904 16.215l0.932 0.466c4.658 0.932 6.987 7.453 12.11 5.124 0 3.261 0.466 6.521-0.466 8.85-1.397 3.726-5.59 3.726-8.85 3.726-31.208-1.863-49.374 11.179-68.471 22.358-5.124 3.261-10.713 5.59-14.906 9.782-20.029 18.632-41.921 35.866-47.045 70.335l-4.192 38.195c-0.466 4.192-5.124 8.384-4.192 13.508l3.26 22.824c-3.261-3.261-5.124 0.932-4.192 2.795 0.466 1.397 2.329 6.055 5.124 1.863 3.726 6.987 7.453 20.495 12.576 26.55 15.837 18.632 36.332 35.4 53.101 52.169 4.192-0.932 7.453-0.932 8.384-3.727 1.397 2.795-1.397 5.59-3.726 6.056 7.453 4.658 15.837 8.85 27.016 9.781 14.44 0.932 27.948 3.261 40.524 6.522 6.521-1.863 13.042-2.795 20.029-3.261 2.329 0 3.726-3.726 6.521-4.658l0.466-4.658c2.795 4.192 2.329-1.397 0.466-4.192 3.261 2.795 4.192 5.124 5.589 6.987 0-1.397 3.726-6.521 3.727-0.466l0.931-6.055c1.397-0.932 1.863 5.124 3.261 0.931 1.397-4.192 4.192-0.932 6.987-2.329-0.932 1.863-0.466 5.59 2.794 3.261l3.727-3.261c2.329 5.59 6.055 3.261 7.918 2.329 20.495-13.042 40.99-28.413 60.553-43.784l-0.466 6.055 2.329-7.453c2.329 2.329 4.192 0.466 5.124-0.931 2.795-4.658 6.521-9.316 12.577-13.508-7.453 20.029-16.303 35.866-27.482 48.908l-4.658 5.59c0 3.261-0.932 7.453-4.658 7.918-1.863 0.466-5.59-0.932-8.384 1.863-1.397 1.863 3.261 5.59-0.466 2.795-3.261-2.329-6.521 0-10.248 0.932-2.795 0.932 1.863 3.726 2.795 5.589 0.932 1.863 1.863 3.726 1.398 6.056l-5.124-5.59c-6.055 3.261-9.782 9.316-14.906 13.974-2.329 1.863-1.397 5.124-1.397 7.918-3.261 0-6.987-0.932-8.85 0.932-1.397 1.863-0.932 4.658-0.932 7.453-4.658-0.466-5.124-7.453-9.315-6.056-4.192 0.932-8.85 1.397-12.577 3.727 2.795 5.59-4.658 2.329-3.726 3.26-6.987-4.192-13.042-7.453-20.495-4.658-15.837-5.124-35.4-2.795-49.84-0.931 0-2.329 0.466-4.658-0.466-5.124-0.932 2.329-3.726 1.397-3.26 1.397-8.85-6.055-17.7-9.782-27.016-14.905-8.384 0.932-16.303-3.261-18.632-5.59-6.521-6.055-13.974-2.795-20.029-4.192-13.042-3.261-17.7-16.769-19.098-26.084-0.932-4.658-4.658-6.521-6.055-6.056-6.055-19.563-15.371-37.263-22.824-55.429-1.863-4.658-1.397-9.316-1.397-14.44 2.329 0.932 4.658 0.466 4.192-2.794-2.329-15.371-7.918-27.016-13.974-38.195 3.261-15.837 3.726-34.469 11.179-48.443 6.521-12.576 18.632-19.098 27.016-29.811 2.795-3.726 2.795-8.85 5.59-12.11 9.316-9.316 18.632-19.098 28.879-27.482 4.658-3.726 10.247 0 17.234-1.397 2.329-8.384 11.645-15.837 20.495-13.508 3.726 0.932 11.179-8.85 13.508-9.782 3.726-1.397 1.863 3.726 1.863 6.987 8.85-6.987 20.961-10.713 32.14-14.906"
                              fill="black"
                              fill-rule="nonzero"
                              stroke="none"
                              stroke-width="1"
                              stroke-linecap="butt"
                              stroke-linejoin="miter"
                              stroke-miterlimit="10"
                              stroke-dasharray=""
                              stroke-dashoffset="0"
                              font-family="none"
                              font-weight="none"
                              font-size="none"
                              text-anchor="none"
                              style="mix-blend-mode: normal"
                            ></path>
                          </g>
                          <g transform="matrix(1,0,0,1,64,121.55251141552512)">
                            <svg
                              viewBox="0 0 192 116.89497716894975"
                              height="116.89497716894975"
                              width="192"
                            >
                              <g>
                                <svg
                                  viewBox="0 0 192 116.89497716894975"
                                  height="116.89497716894975"
                                  width="192"
                                >
                                  <g>
                                    <svg
                                      viewBox="0 0 192 116.89497716894975"
                                      height="116.89497716894975"
                                      width="192"
                                    >
                                      <g id="SvgjsG1103">
                                        <svg
                                          viewBox="0 0 192 116.89497716894975"
                                          height="116.89497716894975"
                                          width="192"
                                          id="SvgjsSvg1102"
                                        >
                                          <g>
                                            <svg
                                              viewBox="0 0 192 116.89497716894975"
                                              height="116.89497716894975"
                                              width="192"
                                            >
                                              <g
                                                transform="matrix(1,0,0,1,0,0)"
                                              >
                                                <svg
                                                  width="192"
                                                  viewBox="2.64 -40 65.69 40"
                                                  height="116.89497716894975"
                                                  data-palette-color="url(#c21cd238-6876-4862-84fd-95eb39989a9b)"
                                                >
                                                  <path
                                                    d="M3.31 0L2.64 0 2.64-40 8.69-40 10.88-18.82 12.46-2.79 13.06-2.79 14.65-18.81 16.82-40 22.91-40 22.91 0 22.25 0 22.25-39.44 17.39-39.44 15.23-18.36 13.6-2.23 11.95-2.23 10.34-18.39 8.13-39.44 3.31-39.44 3.31 0ZM6.01 0L5.35 0 5.24-16.59 4.84-37.77 6.51-37.77 8.71-16.69 10.34-0.56 15.19-0.56 16.82-16.73 19.01-37.77 20.73-37.77 20.31-16.59 20.2 0 19.54 0 19.65-16.14 20.13-37.21 19.54-37.21 17.41-16.2 15.8 0 9.76 0 8.15-16.19 6.03-37.21 5.43-37.21 5.9-16.14 6.01 0ZM4.64 0L3.98 0 3.91-17.61 3.74-38.89 7.58-38.89 9.81-17.96 11.41-1.68 14.11-1.68 15.74-17.98 17.96-38.89 21.81-38.89 21.64-17.6 21.59 0 20.93 0 20.98-17.01 21.19-38.33 18.54-38.33 16.31-17.31 14.66-1.11 10.85-1.11 9.25-17.31 7.03-38.33 4.36-38.33 4.58-17.01 4.64 0ZM31.86 0L27.87 0 27.87-0.59 31.86-0.59 31.86 0ZM31.86-2.36L27.87-2.36 27.87-2.96 31.86-2.96 31.86-2.36ZM31.86-1.19L27.87-1.19 27.87-1.78 31.86-1.78 31.86-1.19ZM38.92 0L38.25 0 38.25-30 38.91-30 38.91-28.4 38.76-24.98 38.93-24.98Q39.57-26.85 40.95-27.86 42.32-28.88 44.4-28.88L44.4-28.88Q44.91-28.88 45.43-28.86 45.96-28.85 46.28-28.84L46.28-28.84 46.28-28.24Q45.93-28.26 45.38-28.27 44.82-28.28 44.28-28.28L44.28-28.28Q42.46-28.28 41.26-27.51 40.07-26.75 39.5-25.59 38.92-24.44 38.92-23.24L38.92-23.24 38.92 0ZM37.58 0L36.92 0 36.92-30 37.58-30 37.58 0ZM40.28 0L39.58 0 39.58-23.3Q39.58-25.09 40.71-26.36 41.83-27.64 44.03-27.64L44.03-27.64Q44.61-27.64 45.18-27.64 45.76-27.64 46.28-27.64L46.28-27.64 46.28-27.04Q45.76-27.04 45.18-27.04 44.6-27.04 44.03-27.04L44.03-27.04Q42.08-27.04 41.18-25.98 40.28-24.91 40.28-23.34L40.28-23.34 40.28 0ZM39.38-26.53L39.18-26.53 39.56-29.41 39.56-30 40.23-30 40.23-29.78 39.76-27.71 39.88-27.71Q40.56-28.86 41.88-29.46 43.21-30.06 44.65-30.06L44.65-30.06Q45-30.06 45.4-30.06 45.8-30.05 46.28-30.01L46.28-30.01 46.28-29.43Q45.86-29.45 45.46-29.46 45.07-29.48 44.68-29.48L44.68-29.48Q42.88-29.48 41.52-28.78 40.16-28.09 39.38-26.53L39.38-26.53ZM52.07 0L48.08 0 48.08-0.59 52.07-0.59 52.07 0ZM52.07-2.36L48.08-2.36 48.08-2.96 52.07-2.96 52.07-2.36ZM52.07-1.19L48.08-1.19 48.08-1.78 52.07-1.78 52.07-1.19ZM68.33 0L57.03 0 57.03-40 57.7-40 57.7-0.59 68.33-0.59 68.33 0ZM68.33-1.19L58.37-1.19 58.37-40 59.03-40 59.03-1.78 68.33-1.78 68.33-1.19ZM68.33-2.36L59.69-2.36 59.69-40 60.35-40 60.35-2.96 68.33-2.96 68.33-2.36Z"
                                                    opacity="1"
                                                    transform="matrix(1,0,0,1,0,0)"
                                                    fill="black"
                                                    class="wordmark-text-0"
                                                    id="SvgjsPath1101"
                                                  ></path>
                                                </svg>
                                              </g>
                                            </svg>
                                          </g>
                                        </svg>
                                      </g>
                                    </svg>
                                  </g>
                                  <g></g>
                                </svg>
                              </g>
                            </svg>
                          </g>
                        </svg>
                      </g>
                      <defs><mask></mask></defs>
                    </svg>
                    <rect
                      width="320"
                      height="360"
                      fill="black"
                      stroke="none"
                      visibility="hidden"
                    ></rect>
                  </g>
                </mask>
              </svg>
              <rect
                width="320"
                height="360"
                fill="black"
                stroke="none"
                visibility="hidden"
              ></rect>
            </g>
          </mask>
          <linearGradient
            x1="0.054"
            x2="0.941"
            y1="0.5"
            y2="0.5"
            id="fefc11dc-4907-4be7-a7e1-6f2301f63d1a"
          >
            <stop stop-color="#9c7945" offset="0"></stop>
            <stop stop-color="#faf3aa" offset="0.498"></stop>
            <stop stop-color="#9c7945" offset="1"></stop>
          </linearGradient>
        </svg>
        <rect
          width="320"
          height="360"
          fill="none"
          stroke="none"
          visibility="hidden"
        ></rect>
      </g>
    </svg>
  </g>
</svg>
